<svg width="453" height="798" viewBox="0 0 453 798" fill="none" xmlns="http://www.w3.org/2000/svg">
<path d="M13 133L13 386.5" stroke="white" stroke-width="26"/>
<path d="M13 142.5C13 34.5001 112 9.99998 147.5 14" stroke="white" stroke-width="26"/>
<path d="M129.5 14C148 13.5 172.8 11.8 200 29" stroke="white" stroke-width="26"/>
<path d="M189 23C200 28 224.619 42.8461 241 76.5" stroke="white" stroke-width="26"/>
<path d="M94 332V150.06L227.5 73.5C250.333 63.5 305.503 47.1339 359.5 89.5602C436.5 150.06 407.5 222.5 399 259" stroke="white" stroke-width="26"/>
<path d="M89 250.5L252.5 155.5L380 235.5C448 278 453.103 341.806 416.5 406.5C399.243 437 345.5 465.5 325.5 470.5" stroke="white" stroke-width="26"/>
<path d="M175 198.5L246.5 248.353M246.5 248.353L326 299.5V476C307.667 509.5 260 563.8 202 557C144 550.2 112.333 529.167 105.5 514L246.5 429.5V248.353Z" stroke="white" stroke-width="26"/>
<path d="M17 499.47C31.5778 509.68 67.5016 527.038 94.5746 514.786C121.648 502.533 160.472 481.323 178 470.5" stroke="white" stroke-width="26"/>
<path d="M13.5 287.5L173.5 382L248 329.5L107.5 427L13.5 371.5" stroke="white" stroke-width="26"/>
<path d="M97 506V797" stroke="white" stroke-width="26"/>
<path d="M9 784H99" stroke="white" stroke-width="26"/>
<path d="M14.817 797L13 260" stroke="white" stroke-width="26"/>
</svg>