<svg width="32" height="32" viewBox="0 0 32 32" fill="none" xmlns="http://www.w3.org/2000/svg">
<rect x="1" y="1" width="30" height="30" fill="black" stroke="white" stroke-width="2"/>
<path d="M10.4538 25V8.27273H17.0533C18.322 8.27273 19.4028 8.51503 20.2958 8.99964C21.1888 9.47881 21.8694 10.1458 22.3377 11.0007C22.8114 11.8501 23.0483 12.8303 23.0483 13.9411C23.0483 15.0518 22.8087 16.032 22.3295 16.8814C21.8504 17.7308 21.1561 18.3924 20.2468 18.8661C19.3429 19.3398 18.2485 19.5767 16.9634 19.5767H12.7571V16.7425H16.3917C17.0723 16.7425 17.6332 16.6255 18.0742 16.3913C18.5207 16.1518 18.8529 15.8223 19.0707 15.4031C19.2939 14.9783 19.4055 14.491 19.4055 13.9411C19.4055 13.3857 19.2939 12.901 19.0707 12.4872C18.8529 12.0679 18.5207 11.744 18.0742 11.5153C17.6277 11.2811 17.0614 11.1641 16.3754 11.1641H13.9904V25H10.4538Z" fill="white"/>
</svg>
