<svg width="161" height="161" viewBox="0 0 161 161" fill="none" xmlns="http://www.w3.org/2000/svg">
<rect width="161" height="161" rx="36" fill="white"/>
<rect width="161" height="161" rx="36" stroke="white"/>
<path d="M46.4183 139V30.6364H89.1712C97.3902 30.6364 104.392 32.2061 110.177 35.3455C115.962 38.4497 120.372 42.7708 123.405 48.3089C126.474 53.8118 128.009 60.1612 128.009 67.3572C128.009 74.5533 126.456 80.9027 123.352 86.4055C120.248 91.9084 115.751 96.1942 109.86 99.2631C104.004 102.332 96.9139 103.866 88.5891 103.866H61.3395V85.506H84.8853C89.2946 85.506 92.9279 84.7476 95.7852 83.2308C98.6777 81.6787 100.829 79.5446 102.24 76.8285C103.687 74.0771 104.41 70.92 104.41 67.3572C104.41 63.7592 103.687 60.6198 102.24 57.9389C100.829 55.2228 98.6777 53.1239 95.7852 51.6424C92.8926 50.1256 89.2241 49.3672 84.7795 49.3672H69.3292V139H46.4183Z" fill="black"/>
</svg>
