<svg width="161" height="161" viewBox="0 0 161 161" fill="none" xmlns="http://www.w3.org/2000/svg">
<rect width="161" height="161" rx="36" fill="black"/>
<rect width="161" height="161" rx="36" stroke="white"/>
<path d="M51.7116 131V42.2727H86.7173C93.447 42.2727 99.1802 43.558 103.917 46.1285C108.654 48.6702 112.264 52.2083 114.748 56.7429C117.261 61.2486 118.517 66.4474 118.517 72.3395C118.517 78.2315 117.246 83.4304 114.705 87.9361C112.163 92.4418 108.48 95.951 103.657 98.4638C98.8625 100.977 93.0571 102.233 86.2408 102.233H63.929V87.1996H83.2081C86.8184 87.1996 89.7933 86.5786 92.1328 85.3366C94.5012 84.0658 96.263 82.3184 97.4183 80.0945C98.6025 77.8416 99.1946 75.2566 99.1946 72.3395C99.1946 69.3935 98.6025 66.8229 97.4183 64.6278C96.263 62.4039 94.5012 60.6854 92.1328 59.4723C89.7644 58.2303 86.7607 57.6094 83.1215 57.6094H70.4709V131H51.7116Z" fill="white"/>
</svg>
