<svg width="156" height="155" viewBox="0 0 156 155" fill="none" xmlns="http://www.w3.org/2000/svg">
<path d="M71.2871 17.2133L71.0183 15.53L77.1059 14.5576L77.3747 16.2408L71.2871 17.2133ZM73.9848 5.73494L75.905 17.7558C76.0125 18.4291 75.9545 19.0114 75.7309 19.5026C75.508 19.9985 75.171 20.3952 74.7198 20.6926C74.2694 20.9947 73.759 21.1913 73.1886 21.2824C72.7678 21.3497 72.4022 21.3721 72.0917 21.3498C71.782 21.3321 71.5502 21.3068 71.3963 21.2738L71.6162 19.4982C71.7188 19.5106 71.8503 19.5231 72.0106 19.5359C72.1716 19.5533 72.362 19.5445 72.5817 19.5094C73.0914 19.428 73.4359 19.2435 73.6153 18.9559C73.7901 18.6691 73.8393 18.2872 73.7632 17.8103L71.8878 6.06991L73.9848 5.73494Z" fill="white"/>
<path d="M53.7155 14.7273L56.5973 20.4249L54.696 21.3866L49.7722 11.6519L51.6355 10.7094L52.4882 12.3953L52.5896 12.344C52.5506 11.711 52.6907 11.0963 53.0098 10.4998C53.3269 9.90966 53.8508 9.42973 54.5818 9.06002C55.2071 8.74374 55.83 8.6011 56.4506 8.63211C57.0691 8.66948 57.6535 8.89123 58.2038 9.29737C58.7499 9.70564 59.226 10.3112 59.632 11.1139L62.7639 17.3059L60.8689 18.2643L57.8524 12.3006C57.5169 11.6372 57.066 11.202 56.4997 10.995C55.9333 10.788 55.3565 10.833 54.7692 11.1301C54.4143 11.3096 54.1064 11.5768 53.8455 11.9316C53.5803 12.2886 53.4224 12.7054 53.3716 13.1821C53.3167 13.6609 53.4313 14.176 53.7155 14.7273Z" fill="white"/>
<path d="M41.3442 33.8403L31.5216 23.1125L33.0878 21.6784L42.9105 32.4062L41.3442 33.8403Z" fill="white"/>
<path d="M34.1721 41.0454L22.6001 32.233L23.8867 30.5435L35.4587 39.356L34.1721 41.0454Z" fill="white"/>
<path d="M21.0743 49.6476L21.4974 47.7393C21.7556 47.7594 22.0211 47.7312 22.2938 47.6547C22.5647 47.5826 22.822 47.4382 23.0658 47.2215C23.3095 47.0049 23.5158 46.6932 23.6846 46.2865C23.9152 45.7311 23.983 45.2159 23.888 44.7407C23.7975 44.2673 23.5576 43.9498 23.1684 43.7883C22.8316 43.6485 22.5088 43.6605 22.1998 43.8245C21.8908 43.9884 21.5554 44.3208 21.1936 44.8218L20.1619 46.2698C19.5627 47.1079 18.9457 47.6618 18.3109 47.9314C17.676 48.201 17.0022 48.1879 16.2894 47.892C15.6859 47.6414 15.2207 47.2432 14.8936 46.6973C14.5691 46.1576 14.4024 45.5219 14.3934 44.7902C14.3827 44.0628 14.5461 43.2925 14.8838 42.4791C15.3521 41.3509 15.9748 40.5302 16.7517 40.0171C17.5331 39.5058 18.4033 39.3544 19.3626 39.563L18.8642 41.5785C18.3211 41.4914 17.8464 41.5789 17.4403 41.841C17.0385 42.1048 16.7151 42.5319 16.4701 43.1223C16.2032 43.7651 16.1233 44.3343 16.2303 44.8299C16.3416 45.3272 16.5919 45.6567 16.9811 45.8183C17.296 45.949 17.6095 45.9407 17.9218 45.7936C18.2323 45.6507 18.5421 45.3615 18.8511 44.9259L19.933 43.3756C20.5376 42.5244 21.1673 41.9707 21.8222 41.7145C22.4753 41.4627 23.1605 41.4857 23.8776 41.7834C24.4724 42.0303 24.9238 42.4125 25.2318 42.93C25.5399 43.4475 25.6969 44.051 25.7029 44.7405C25.7133 45.4318 25.5615 46.1557 25.2474 46.9122C24.7954 48.0011 24.2034 48.7601 23.4715 49.1894C22.744 49.6205 21.9449 49.7733 21.0743 49.6476Z" fill="white"/>
<path d="M18.0036 68.5235L16.3075 68.3544L16.8987 62.425L18.5948 62.5941L18.0036 68.5235ZM21.037 64.4435L20.8263 66.5566L10.5576 65.5328C10.1477 65.4919 9.83304 65.5224 9.61352 65.6242C9.39871 65.7265 9.24399 65.8705 9.14935 66.0562C9.05894 66.247 9.00224 66.4579 8.97922 66.6887C8.96231 66.8583 8.95929 67.0079 8.97016 67.1375C8.98104 67.267 8.99002 67.3679 8.99711 67.4399L7.21345 67.6475C7.17855 67.5203 7.14882 67.3413 7.12425 67.1105C7.09497 66.8792 7.09489 66.5936 7.12399 66.254C7.17 65.6971 7.32061 65.1887 7.57583 64.7288C7.83105 64.2688 8.19019 63.9121 8.65324 63.6585C9.11629 63.4049 9.67526 63.3107 10.3302 63.376L21.037 64.4435Z" fill="white"/>
<path d="M5.74709 82.4318C5.6062 81.755 5.60397 81.1171 5.74041 80.518C5.88149 79.9179 6.15978 79.4078 6.57528 78.9876C6.99175 78.572 7.54996 78.2913 8.24992 78.1456C8.85253 78.0202 9.37265 78.0328 9.81028 78.1835C10.2479 78.3342 10.6213 78.5829 10.9305 78.9297C11.2396 79.2764 11.5028 79.6811 11.72 80.1437C11.9373 80.6063 12.1286 81.0839 12.294 81.5766C12.5014 82.2009 12.6697 82.7075 12.7991 83.0965C12.933 83.4846 13.0745 83.7574 13.2234 83.915C13.3722 84.0726 13.5718 84.1254 13.8222 84.0733L13.8708 84.0631C14.4781 83.9367 14.9129 83.6673 15.1752 83.2548C15.4385 82.8469 15.5002 82.3069 15.3603 81.6347C15.2146 80.9348 14.9444 80.4155 14.5499 80.0769C14.161 79.7419 13.7629 79.537 13.3555 79.4622L13.3938 77.4157C14.091 77.5124 14.6853 77.7417 15.1765 78.1037C15.6734 78.4694 16.0731 78.9255 16.3754 79.4719C16.6825 80.0174 16.903 80.6123 17.0372 81.2566C17.126 81.6831 17.1691 82.1457 17.1665 82.6443C17.1695 83.1467 17.0823 83.634 16.9049 84.1062C16.7285 84.583 16.4226 85.007 15.9873 85.3781C15.5565 85.7483 14.9517 86.0145 14.173 86.1766L7.08072 87.6531L6.65805 85.6227L8.11822 85.3188L8.10085 85.2353C7.804 85.1569 7.4978 85.0102 7.18225 84.7954C6.86669 84.5806 6.57925 84.2801 6.31992 83.894C6.06059 83.5079 5.86965 83.0205 5.74709 82.4318ZM7.50995 82.5363C7.62961 83.1111 7.84547 83.5788 8.15753 83.9395C8.47055 84.3047 8.83236 84.5559 9.24295 84.6929C9.65915 84.8335 10.0782 84.86 10.5 84.7721L11.8767 84.4855C11.7871 84.4268 11.6877 84.2976 11.5784 84.0979C11.4747 83.9018 11.3717 83.6742 11.2694 83.415C11.1717 83.1548 11.0777 82.9011 10.9876 82.6539C10.9021 82.4057 10.8299 82.1982 10.771 82.0315C10.636 81.6389 10.4735 81.2882 10.2835 80.9795C10.0945 80.6755 9.86567 80.4475 9.59704 80.2954C9.334 80.1471 9.01707 80.1115 8.64623 80.1887C8.13169 80.2958 7.78188 80.5669 7.59679 81.002C7.41634 81.4362 7.38739 81.9476 7.50995 82.5363Z" fill="white"/>
<path d="M12.908 108.652C12.3497 107.756 12.0719 106.858 12.0747 105.958C12.0841 105.059 12.3408 104.213 12.8448 103.42C13.3489 102.626 14.0651 101.94 14.9934 101.362C15.9338 100.776 16.8739 100.436 17.8135 100.341C18.7572 100.244 19.6323 100.391 20.4388 100.781C21.2453 101.171 21.9202 101.802 22.4634 102.674C22.9016 103.377 23.1615 104.086 23.2433 104.799C23.3291 105.51 23.244 106.179 22.9882 106.807C22.7348 107.439 22.3167 107.981 21.7338 108.434L20.641 106.68C21.0149 106.313 21.251 105.859 21.3491 105.318C21.4498 104.781 21.3211 104.225 20.9631 103.651C20.6502 103.148 20.2434 102.791 19.7428 102.578C19.2488 102.367 18.6935 102.309 18.077 102.403C17.4646 102.494 16.8288 102.745 16.1697 103.156C15.4946 103.576 14.9757 104.042 14.6131 104.552C14.2505 105.063 14.051 105.589 14.0145 106.13C13.9806 106.676 14.1226 107.204 14.4406 107.714C14.6534 108.056 14.9085 108.326 15.2058 108.526C15.5097 108.727 15.839 108.848 16.1938 108.889C16.551 108.935 16.9202 108.891 17.3014 108.76L18.3942 110.514C17.7553 110.823 17.0994 110.961 16.4264 110.928C15.7534 110.896 15.1121 110.69 14.5023 110.311C13.8951 109.937 13.3636 109.383 12.908 108.652Z" fill="white"/>
<path d="M27.7128 124.199L29.3053 122.153L29.5955 122.382L35.8664 121.444L37.8641 123.017L30.7178 124.079L30.4556 123.872L27.7128 124.199ZM23.8891 125.898L32.8876 114.47L34.556 115.783L25.5575 127.211L23.8891 125.898ZM29.3017 130.16L29.4402 123.67L31.508 123.408L31.3496 131.772L29.3017 130.16Z" fill="white"/>
<path d="M52.6815 136.862L52.0565 138.593L45.9912 136.402L46.6162 134.672L52.6815 136.862Z" fill="white"/>
<path d="M67.1349 149.157C66.2542 149.152 65.4694 148.923 64.7805 148.47C64.0963 148.012 63.56 147.363 63.1714 146.523C62.7875 145.678 62.5987 144.666 62.6049 143.487C62.6111 142.308 62.8129 141.3 63.2103 140.464C63.6124 139.628 64.1603 138.99 64.8539 138.548C65.5475 138.107 66.3323 137.888 67.2082 137.893C67.8853 137.897 68.4292 138.013 68.8399 138.243C69.2554 138.467 69.576 138.729 69.8017 139.029C70.0322 139.328 70.2107 139.592 70.3374 139.82L70.4652 139.821L70.4936 134.416L72.6171 134.427L72.5407 148.972L70.4669 148.961L70.4758 147.264L70.2983 147.263C70.1692 147.494 69.9832 147.759 69.7401 148.056C69.5018 148.353 69.1737 148.611 68.7559 148.832C68.3381 149.052 67.7977 149.161 67.1349 149.157ZM67.6131 147.348C68.2239 147.352 68.7408 147.193 69.1639 146.874C69.5918 146.549 69.9161 146.099 70.137 145.522C70.3625 144.946 70.4773 144.274 70.4813 143.507C70.4853 142.749 70.3799 142.086 70.1651 141.517C69.9503 140.947 69.633 140.503 69.2133 140.183C68.7935 139.864 68.2736 139.703 67.6533 139.699C67.0141 139.696 66.4806 139.859 66.0527 140.188C65.6248 140.517 65.3005 140.968 65.0797 141.54C64.8636 142.111 64.7537 142.757 64.7499 143.477C64.7461 144.206 64.8515 144.862 65.0663 145.446C65.281 146.029 65.6005 146.493 66.0249 146.836C66.454 147.174 66.9834 147.345 67.6131 147.348Z" fill="white"/>
<path d="M95.8678 147.523C94.8668 147.915 93.9211 148.038 93.0306 147.893C92.1428 147.742 91.3501 147.353 90.6523 146.726C89.9572 146.093 89.4036 145.25 88.9913 144.196C88.5842 143.155 88.4194 142.162 88.4969 141.217C88.5789 140.269 88.8833 139.436 89.4102 138.716C89.9415 137.995 90.6789 137.45 91.6225 137.081C92.1958 136.856 92.7884 136.734 93.4006 136.713C94.0127 136.692 94.612 136.801 95.1984 137.039C95.7848 137.278 96.3283 137.673 96.8288 138.224C97.3275 138.771 97.7572 139.506 98.1177 140.427L98.392 141.128L90.3161 144.288L89.7365 142.806L95.8744 140.405C95.6709 139.885 95.3848 139.465 95.0162 139.147C94.6458 138.824 94.2231 138.621 93.7481 138.537C93.2774 138.452 92.7864 138.509 92.2749 138.709C91.7193 138.926 91.2877 139.253 90.9802 139.688C90.6753 140.118 90.4958 140.595 90.4417 141.119C90.3903 141.638 90.4638 142.15 90.6622 142.658L91.115 143.815C91.3806 144.494 91.7256 145.025 92.1501 145.408C92.5789 145.79 93.0585 146.021 93.589 146.104C94.1177 146.182 94.6709 146.107 95.2485 145.881C95.6233 145.735 95.9443 145.548 96.2116 145.322C96.4771 145.091 96.6801 144.823 96.8204 144.519C96.9608 144.215 97.0284 143.881 97.0233 143.517L99.027 143.122C99.0927 143.732 99.0126 144.32 98.7868 144.886C98.5636 145.446 98.2058 145.955 97.7134 146.412C97.2238 146.863 96.6085 147.233 95.8678 147.523Z" fill="white"/>
<path d="M115.994 124.81L120.321 135.577L118.628 137.093L108.399 131.607L110.098 130.086L117.756 134.499L117.84 134.423L114.295 126.33L115.994 124.81Z" fill="white"/>
<path d="M137.371 118.702C136.871 119.653 136.237 120.366 135.47 120.84C134.7 121.308 133.846 121.533 132.908 121.516C131.968 121.493 130.997 121.219 129.996 120.693C129.006 120.173 128.231 119.531 127.67 118.765C127.112 117.996 126.796 117.167 126.723 116.278C126.651 115.385 126.851 114.49 127.323 113.593C127.609 113.048 127.976 112.567 128.425 112.15C128.874 111.734 129.398 111.423 129.997 111.219C130.596 111.015 131.266 110.958 132.005 111.046C132.741 111.133 133.546 111.407 134.422 111.867L135.089 112.217L131.057 119.894L129.648 119.154L132.713 113.319C132.218 113.06 131.727 112.93 131.24 112.931C130.749 112.93 130.296 113.053 129.883 113.301C129.471 113.545 129.138 113.91 128.882 114.396C128.605 114.924 128.493 115.454 128.546 115.984C128.597 116.508 128.773 116.986 129.076 117.418C129.377 117.843 129.768 118.183 130.25 118.436L131.351 119.014C131.996 119.353 132.605 119.528 133.176 119.539C133.75 119.547 134.264 119.408 134.719 119.122C135.17 118.835 135.539 118.416 135.828 117.867C136.015 117.511 136.135 117.16 136.188 116.813C136.238 116.465 136.216 116.13 136.123 115.808C136.03 115.487 135.862 115.19 135.62 114.918L136.875 113.307C137.324 113.725 137.649 114.222 137.849 114.797C138.047 115.367 138.11 115.986 138.037 116.653C137.963 117.315 137.741 117.998 137.371 118.702Z" fill="white"/>
<path d="M133.186 91.7955L147.41 94.8348L146.966 96.9115L132.742 93.8722L133.186 91.7955Z" fill="white"/>
<path d="M150.141 81.9725C150.205 82.9932 150.027 83.8986 149.607 84.6888C149.187 85.4789 148.57 86.1106 147.755 86.5839C146.94 87.0572 145.97 87.3291 144.846 87.3997C143.716 87.4705 142.715 87.3221 141.843 86.9545C140.971 86.587 140.277 86.0375 139.761 85.306C139.246 84.5745 138.956 83.6984 138.892 82.6777C138.828 81.6569 139.006 80.7515 139.426 79.9614C139.846 79.1712 140.466 78.5393 141.286 78.0657C142.105 77.5921 143.08 77.3199 144.209 77.2491C145.334 77.1786 146.33 77.3273 147.197 77.6951C148.065 78.063 148.757 78.6126 149.272 79.3441C149.788 80.0756 150.077 80.9517 150.141 81.9725ZM148.362 82.0769C148.32 81.4153 148.111 80.8781 147.734 80.4653C147.357 80.0525 146.872 79.7603 146.277 79.5888C145.683 79.4126 145.036 79.3464 144.336 79.3903C143.642 79.4338 143.01 79.5801 142.442 79.8292C141.869 80.0739 141.419 80.4247 141.092 80.8817C140.765 81.3386 140.622 81.8979 140.664 82.5595C140.706 83.2258 140.917 83.7676 141.299 84.1848C141.681 84.5974 142.172 84.8916 142.771 85.0675C143.365 85.239 144.01 85.303 144.704 85.2594C145.404 85.2156 146.037 85.0715 146.606 84.8271C147.174 84.578 147.619 84.2251 147.941 83.7685C148.263 83.3071 148.403 82.7432 148.362 82.0769Z" fill="white"/>
<path d="M152.472 58.3694L138.872 64.6974L137.997 62.8171L139.6 62.0711L139.525 61.9101C139.267 61.8944 138.954 61.8442 138.586 61.7597C138.218 61.6752 137.846 61.4932 137.47 61.2136C137.09 60.936 136.758 60.4902 136.472 59.8763C136.1 59.0779 135.971 58.2714 136.082 57.4568C136.194 56.6423 136.547 55.8801 137.141 55.1703C137.733 54.4561 138.564 53.8503 139.633 53.353C140.702 52.8556 141.701 52.6073 142.631 52.608C143.557 52.6108 144.37 52.8275 145.072 53.2582C145.77 53.6909 146.304 54.3065 146.676 55.105C146.955 55.706 147.083 56.2445 147.059 56.7204C147.033 57.1921 146.935 57.5981 146.764 57.9386C146.594 58.2791 146.43 58.5563 146.274 58.77L146.328 58.8859L151.576 56.444L152.472 58.3694ZM142.939 60.5096C143.635 60.186 144.197 59.8015 144.627 59.356C145.057 58.9106 145.331 58.4279 145.45 57.908C145.564 57.3901 145.492 56.8543 145.234 56.3005C144.967 55.7252 144.591 55.3153 144.106 55.0708C143.617 54.8283 143.063 54.7311 142.443 54.7793C141.821 54.8232 141.18 54.999 140.518 55.3066C139.866 55.6102 139.326 55.9816 138.898 56.4208C138.469 56.8557 138.195 57.3384 138.076 57.8688C137.955 58.395 138.03 58.9479 138.299 59.5274C138.559 60.0855 138.923 60.4908 139.39 60.7433C139.855 60.9915 140.392 61.0946 140.999 61.0523C141.606 61.0101 142.253 60.8292 142.939 60.5096Z" fill="white"/>
<path d="M133.949 31.7596C134.726 32.5019 135.237 33.3073 135.481 34.1757C135.719 35.0443 135.701 35.9272 135.427 36.8243C135.146 37.7216 134.615 38.5794 133.833 39.3978C133.062 40.2059 132.231 40.7742 131.341 41.1028C130.447 41.4281 129.563 41.5037 128.689 41.3296C127.81 41.1522 127.005 40.7136 126.272 40.0138C125.827 39.5887 125.466 39.103 125.189 38.5569C124.912 38.0107 124.757 37.4214 124.726 36.7892C124.695 36.157 124.824 35.4976 125.113 34.8112C125.398 34.1281 125.883 33.4287 126.566 32.7131L127.086 32.1686L133.358 38.1579L132.259 39.3084L127.492 34.7564C127.107 35.1604 126.847 35.5968 126.714 36.0653C126.577 36.5373 126.571 37.0063 126.696 37.4723C126.817 37.935 127.076 38.356 127.474 38.7354C127.905 39.1474 128.383 39.401 128.908 39.4961C129.426 39.5913 129.934 39.5528 130.432 39.3806C130.924 39.2085 131.358 38.9256 131.734 38.5318L132.592 37.633C133.096 37.1057 133.432 36.5688 133.6 36.0224C133.765 35.4727 133.773 34.9401 133.623 34.4244C133.471 33.9122 133.17 33.4419 132.722 33.0135C132.431 32.7355 132.126 32.5232 131.808 32.3765C131.487 32.2332 131.158 32.162 130.824 32.163C130.489 32.164 130.157 32.2437 129.829 32.4019L128.626 30.7518C129.151 30.4349 129.718 30.2595 130.327 30.2254C130.929 30.1914 131.541 30.3012 132.163 30.5548C132.778 30.8086 133.374 31.2102 133.949 31.7596Z" fill="white"/>
<path d="M116.522 16.7261L111.752 26.5371L109.906 25.6397L110.664 24.0812L110.562 24.0315C110.126 24.4726 109.609 24.7345 109.011 24.8174C108.406 24.9025 107.816 24.8053 107.241 24.5258C107.122 24.4679 106.984 24.3953 106.826 24.3081C106.664 24.2189 106.539 24.1451 106.452 24.0868L107.34 22.26C107.406 22.3185 107.531 22.4082 107.715 22.529C107.896 22.654 108.085 22.7641 108.281 22.8594C108.732 23.0788 109.181 23.1786 109.628 23.1588C110.068 23.1412 110.472 23.0139 110.84 22.7769C111.206 22.5441 111.492 22.2148 111.699 21.789L114.612 15.7976L116.522 16.7261Z" fill="white"/>
<path d="M93.0843 14.7514L93.4125 12.9414L99.7579 14.0922L99.4297 15.9021L93.0843 14.7514Z" fill="white"/>
</svg>
