<svg width="186" height="186" viewBox="0 0 186 186" fill="none" xmlns="http://www.w3.org/2000/svg">
<path d="M99.1617 164V185.818H86.0793V183.474H96.5196V176.102H87.0594V173.759H96.5196V164H99.1617Z" fill="white"/>
<path d="M62.8509 181.014L60.2989 180.33L64.0378 166.376C64.4238 164.936 65.1081 163.74 66.0905 162.791C67.0643 161.846 68.2525 161.212 69.6551 160.889C71.0559 160.573 72.583 160.637 74.2363 161.08C75.8896 161.523 77.2439 162.231 78.2991 163.205C79.3524 164.186 80.068 165.33 80.4457 166.637C80.8147 167.949 80.8062 169.325 80.4201 170.766L76.6812 184.72L74.1292 184.036L77.813 170.288C78.0887 169.259 78.1077 168.283 77.87 167.359C77.6305 166.441 77.1538 165.641 76.44 164.957C75.7175 164.278 74.7697 163.782 73.5966 163.467C72.4235 163.153 71.3544 163.109 70.3892 163.336C69.4223 163.569 68.6092 164.024 67.9501 164.7C67.2822 165.382 66.8104 166.237 66.5347 167.266L62.8509 181.014Z" fill="white"/>
<path d="M62.086 157.136L51.1769 176.031L48.8888 174.71L58.626 157.844L49.8428 152.773L51.0147 150.743L62.086 157.136Z" fill="white"/>
<path d="M46.5399 146.949L31.1121 162.377L29.2439 160.509L43.0144 146.738L35.8429 139.567L37.5002 137.909L46.5399 146.949Z" fill="white"/>
<path d="M14.8367 132.344C13.9657 132.995 13.4991 133.863 13.437 134.949C13.3749 136.034 13.6741 137.149 14.3346 138.293C14.8175 139.129 15.3754 139.783 16.0083 140.254C16.6376 140.719 17.2902 140.99 17.9663 141.068C18.6387 141.139 19.2764 141 19.8791 140.652C20.3835 140.361 20.7479 139.991 20.9723 139.541C21.187 139.089 21.3042 138.603 21.3239 138.083C21.3374 137.567 21.3004 137.055 21.2127 136.548C21.1188 136.045 21.0168 135.591 20.9066 135.187L20.3153 132.97C20.1604 132.403 20.0227 131.753 19.9023 131.019C19.7783 130.279 19.7534 129.518 19.8274 128.737C19.8917 127.954 20.1236 127.205 20.523 126.49C20.9224 125.776 21.565 125.163 22.4507 124.652C23.4717 124.062 24.5488 123.797 25.682 123.856C26.8116 123.909 27.9141 124.306 28.9895 125.047C30.0613 125.781 31.0163 126.874 31.8543 128.326C32.6356 129.679 33.0937 130.976 33.2287 132.219C33.3602 133.455 33.1987 134.582 32.7443 135.599C32.2863 136.609 31.562 137.45 30.5712 138.12L29.2076 135.758C29.8856 135.285 30.3376 134.704 30.5635 134.016C30.7798 133.325 30.8153 132.591 30.67 131.814C30.515 131.034 30.2209 130.269 29.7877 129.519C29.2834 128.645 28.6892 127.943 28.005 127.411C27.3146 126.883 26.597 126.563 25.8521 126.452C25.101 126.344 24.3811 126.489 23.6922 126.887C23.0648 127.249 22.6555 127.719 22.4643 128.297C22.2731 128.875 22.2196 129.521 22.3038 130.235C22.388 130.949 22.5296 131.692 22.7286 132.463L23.4067 135.171C23.8345 136.892 23.9034 138.411 23.6133 139.726C23.3231 141.042 22.5415 142.067 21.2683 142.802C20.2103 143.413 19.1226 143.66 18.005 143.542C16.8778 143.422 15.8153 143.002 14.8175 142.283C13.81 141.56 12.9582 140.597 12.2622 139.391C11.5591 138.173 11.1524 136.965 11.0423 135.765C10.926 134.569 11.0832 133.478 11.514 132.491C11.9412 131.498 12.6226 130.711 13.5582 130.13L14.8367 132.344Z" fill="white"/>
<path d="M7.72429 124.313L5.46041 124.92L1.22518 109.114L3.48907 108.507L5.26478 115.134L24.0756 110.094L24.7594 112.646L5.94859 117.686L7.72429 124.313Z" fill="white"/>
<path d="M22 99.0998V101.87L0.181818 93.8583L0.181818 91.131L22 83.1197L22 85.8896L3.63352 92.4094V92.5799L22 99.0998ZM13.4773 98.0771L13.4773 86.9123H15.821L15.821 98.0771H13.4773Z" fill="white"/>
<path d="M12.3337 61.7722L11.6499 64.3242C10.8754 64.2784 10.1598 64.3698 9.503 64.5982C8.84805 64.8198 8.26023 65.1475 7.73954 65.5815C7.21382 66.0068 6.76852 66.5162 6.40365 67.1096C6.03877 67.703 5.76258 68.3495 5.57508 69.0493C5.23318 70.3253 5.24587 71.5677 5.61317 72.7763C5.9823 73.9782 6.71279 75.0526 7.80461 75.9995C8.89828 76.9396 10.3575 77.6542 12.1824 78.1431C14.0072 78.6321 15.6282 78.7429 17.0454 78.4756C18.4644 78.2014 19.6342 77.6362 20.5548 76.78C21.4773 75.9168 22.1094 74.8473 22.4513 73.5713C22.6388 72.8715 22.7229 72.1735 22.7036 71.4772C22.6843 70.7808 22.5568 70.118 22.321 69.4886C22.0802 68.8506 21.7316 68.2719 21.2752 67.7526C20.8138 67.2245 20.2397 66.7876 19.5529 66.4418L20.2367 63.8898C21.2623 64.3705 22.1325 64.9786 22.8471 65.7142C23.5618 66.4498 24.1164 67.2749 24.511 68.1894C24.8988 69.1022 25.1211 70.0698 25.178 71.0924C25.2367 72.1081 25.1236 73.1476 24.8387 74.211C24.3571 76.0084 23.4897 77.4892 22.2366 78.6534C20.9835 79.8176 19.4399 80.5841 17.6058 80.9529C15.7717 81.3218 13.7433 81.2084 11.5206 80.6128C9.29788 80.0172 7.48454 79.1012 6.08059 77.8647C4.67663 76.6283 3.7231 75.1927 3.21998 73.5579C2.71685 71.9231 2.7061 70.207 3.18771 68.4096C3.47263 67.3463 3.89444 66.3895 4.45315 65.5392C5.0137 64.682 5.69349 63.9561 6.49254 63.3614C7.28473 62.7649 8.17417 62.3267 9.16087 62.047C10.1407 61.7654 11.1983 61.6738 12.3337 61.7722Z" fill="white"/>
<path d="M27.9406 63.6861L9.04554 52.777L10.3666 50.4889L19.7403 55.9009L19.8681 55.6795L15.395 41.7795L17.1208 38.7902L21.0648 51.6466L36.0159 49.6993L34.4179 52.4672L21.842 53.9651L23.1355 57.8611L29.2617 61.398L27.9406 63.6861Z" fill="white"/>
<path d="M56.374 20.0084L57.5459 22.0382L49.2792 26.8109L48.1074 24.7812L56.374 20.0084Z" fill="white"/>
<path d="M91.5938 22L84.8608 22V0.181818L91.892 0.181818C94.0085 0.181818 95.8196 0.618608 97.3253 1.49219C98.831 2.35866 99.9851 3.60511 100.788 5.23153C101.59 6.85085 101.991 8.78977 101.991 11.0483C101.991 13.321 101.587 15.2777 100.777 16.9183C99.9673 18.5518 98.7884 19.8089 97.2401 20.6896C95.6918 21.5632 93.8097 22 91.5938 22ZM87.5028 19.6562L91.4233 19.6563C93.2273 19.6563 94.7223 19.3082 95.9084 18.6122C97.0945 17.9162 97.9787 16.9254 98.5611 15.6399C99.1435 14.3544 99.4347 12.8239 99.4347 11.0483C99.4347 9.28693 99.147 7.7706 98.5717 6.49929C97.9964 5.22088 97.1371 4.24077 95.9936 3.55895C94.8501 2.87003 93.4261 2.52557 91.7216 2.52557H87.5028V19.6562Z" fill="white"/>
<path d="M105.269 22.7828L110.916 1.70806L123.635 5.11609L123.028 7.37998L112.861 4.65576L110.953 11.7767L120.461 14.3245L119.855 16.5884L110.347 14.0406L108.427 21.2027L118.759 23.9711L118.152 26.235L105.269 22.7828Z" fill="white"/>
<path d="M134.127 9.5672L130.553 28.7117L130.774 28.8395L145.567 16.1723L147.966 17.5573L130.119 32.4467L127.757 31.083L131.728 8.18226L134.127 9.5672Z" fill="white"/>
<path d="M138.734 38.3245L154.161 22.8967L163.472 32.2077L161.815 33.8649L154.372 26.4222L149.159 31.6351L156.12 38.5957L154.463 40.253L147.502 33.2924L142.259 38.5355L149.822 46.0987L148.165 47.756L138.734 38.3245Z" fill="white"/>
<path d="M151.84 52.914L170.735 42.0049L172.056 44.293L155.191 54.0302L160.262 62.8135L158.232 63.9853L151.84 52.914Z" fill="white"/>
<path d="M174.739 81.5807C172.516 82.1763 170.488 82.2897 168.654 81.9208C166.819 81.552 165.276 80.7855 164.023 79.6213C162.77 78.4571 161.902 76.9763 161.421 75.1789C160.939 73.3815 160.95 71.6654 161.453 70.0306C161.956 68.3958 162.91 66.9602 164.314 65.7237C165.717 64.4873 167.531 63.5712 169.754 62.9757C171.976 62.3801 174.005 62.2667 175.839 62.6355C177.673 63.0044 179.216 63.7709 180.47 64.9351C181.723 66.0993 182.59 67.5801 183.072 69.3775C183.553 71.1749 183.542 72.891 183.039 74.5258C182.536 76.1606 181.583 77.5962 180.179 78.8326C178.775 80.0691 176.961 80.9851 174.739 81.5807ZM174.077 79.111C175.902 78.6221 177.36 77.9041 178.452 76.9571C179.546 76.017 180.276 74.9427 180.643 73.734C181.013 72.5321 181.026 71.2932 180.684 70.0172C180.342 68.7412 179.71 67.6716 178.788 66.8085C177.867 65.9523 176.697 65.3871 175.278 65.1129C173.861 64.8456 172.24 64.9564 170.415 65.4454C168.59 65.9343 167.131 66.6488 166.038 67.5889C164.946 68.5359 164.215 69.6103 163.846 70.8121C163.479 72.0208 163.466 73.2632 163.808 74.5392C164.15 75.8152 164.781 76.8813 165.702 77.7376C166.624 78.6007 167.794 79.1659 169.211 79.4332C170.63 79.7074 172.252 79.6 174.077 79.111Z" fill="white"/>
<path d="M164 86.1206H185.818V93.4927C185.818 95.2044 185.509 96.6035 184.891 97.6902C184.281 98.7839 183.453 99.5936 182.409 100.119C181.365 100.645 180.2 100.907 178.915 100.907C177.629 100.907 176.461 100.645 175.41 100.119C174.359 99.6007 173.521 98.7981 172.896 97.7115C172.278 96.6248 171.969 95.2328 171.969 93.5353V88.2512H174.312V93.4501C174.312 94.622 174.515 95.563 174.92 96.2733C175.325 96.9835 175.871 97.4984 176.56 97.818C177.256 98.1447 178.041 98.3081 178.915 98.3081C179.788 98.3081 180.57 98.1447 181.259 97.818C181.947 97.4984 182.487 96.9799 182.878 96.2626C183.276 95.5453 183.474 94.5936 183.474 93.4075V88.7626H164V86.1206Z" fill="white"/>
<path d="M163.217 105.269L184.292 110.916L180.884 123.635L178.62 123.028L181.344 112.861L174.223 110.953L171.676 120.461L169.412 119.855L171.959 110.347L164.797 108.427L162.029 118.759L159.765 118.152L163.217 105.269Z" fill="white"/>
<path d="M157.964 122.479L176.859 133.388L173.173 139.772C172.321 141.249 171.369 142.315 170.318 142.971C169.273 143.63 168.182 143.935 167.046 143.886C165.91 143.837 164.785 143.491 163.672 142.849C162.558 142.206 161.703 141.408 161.104 140.456C160.506 139.504 160.233 138.415 160.284 137.19C160.341 135.968 160.792 134.625 161.638 133.162L164.621 127.995L166.687 129.188L163.747 134.281C163.165 135.29 162.843 136.187 162.784 136.972C162.72 137.764 162.879 138.454 163.261 139.044C163.645 139.643 164.215 140.161 164.971 140.597C165.728 141.034 166.471 141.274 167.2 141.318C167.929 141.362 168.627 141.162 169.293 140.718C169.966 140.278 170.597 139.548 171.186 138.527L173.508 134.504L156.643 124.767L157.964 122.479ZM161.317 136.273L150.145 136.023L151.679 133.366L162.809 133.69L161.317 136.273Z" fill="white"/>
<path d="M129.626 165.992L128.454 163.962L136.721 159.189L137.893 161.219L129.626 165.992Z" fill="white"/>
</svg>
