<svg width="11" height="182" viewBox="0 0 11 182" fill="none" xmlns="http://www.w3.org/2000/svg">
<path d="M0.454545 0.213778L7.95455 0.213778V1.25071H7.07031V1.33949C7.18395 1.40104 7.31534 1.48982 7.46449 1.60582C7.61364 1.72183 7.74384 1.88281 7.85511 2.08878C7.96875 2.29474 8.02557 2.567 8.02557 2.90554C8.02557 3.34588 7.9143 3.73887 7.69176 4.08452C7.46922 4.43016 7.14844 4.70123 6.7294 4.89773C6.31037 5.09659 5.80611 5.19602 5.21662 5.19602C4.62713 5.19602 4.12169 5.09777 3.70028 4.90128C3.28125 4.70478 2.9581 4.4349 2.73082 4.09162C2.50592 3.74834 2.39347 3.35653 2.39347 2.91619C2.39347 2.58475 2.4491 2.31368 2.56037 2.10298C2.67164 1.89465 2.80185 1.7313 2.95099 1.61293C3.10014 1.49455 3.23272 1.40341 3.34872 1.33949V1.27557H0.454545V0.213778ZM5.22727 1.25426C4.84375 1.25426 4.50758 1.3099 4.21875 1.42116C3.92992 1.53243 3.70384 1.69342 3.54048 1.90412C3.3795 2.11482 3.29901 2.37287 3.29901 2.67827C3.29901 2.9955 3.38305 3.26065 3.55114 3.47372C3.72159 3.68679 3.95241 3.84777 4.24361 3.95668C4.5348 4.06795 4.86269 4.12358 5.22727 4.12358C5.58712 4.12358 5.91027 4.06913 6.19673 3.96023C6.48319 3.85369 6.70928 3.69271 6.875 3.47727C7.04072 3.2642 7.12358 2.99787 7.12358 2.67827C7.12358 2.3705 7.04427 2.11009 6.88565 1.89702C6.72704 1.68632 6.50568 1.52652 6.22159 1.41761C5.9375 1.30871 5.60606 1.25426 5.22727 1.25426ZM2.5 6.38565H7.95455V7.41193H7.08807V7.46875C7.38163 7.56818 7.61245 7.74337 7.78054 7.99432C7.95099 8.24763 8.03622 8.53409 8.03622 8.85369C8.03622 8.91998 8.03385 8.99811 8.02912 9.08807C8.02438 9.1804 8.01847 9.2526 8.01136 9.30469H6.99574C7.00758 9.26207 7.0206 9.18632 7.0348 9.07741C7.05137 8.96851 7.05966 8.85961 7.05966 8.75071C7.05966 8.49976 7.00639 8.27604 6.89986 8.07955C6.79569 7.88542 6.65009 7.73153 6.46307 7.6179C6.27841 7.50426 6.06771 7.44744 5.83097 7.44744H2.5V6.38565ZM2.37926 11.7621C2.37926 11.4164 2.44318 11.1039 2.57102 10.8246C2.70123 10.5452 2.88944 10.3239 3.13565 10.1605C3.38187 9.99953 3.68371 9.91903 4.04119 9.91903C4.34896 9.91903 4.60227 9.97822 4.80114 10.0966C5 10.215 5.15743 10.3748 5.27344 10.576C5.38944 10.7772 5.47704 11.0021 5.53622 11.2507C5.59541 11.4993 5.64039 11.7526 5.67116 12.0107C5.70904 12.3374 5.73982 12.6025 5.76349 12.8061C5.78954 13.0097 5.83097 13.1577 5.88778 13.25C5.9446 13.3423 6.03693 13.3885 6.16477 13.3885H6.18963C6.49976 13.3885 6.74006 13.3009 6.91051 13.1257C7.08097 12.9529 7.16619 12.6948 7.16619 12.3516C7.16619 11.9941 7.08688 11.7124 6.92827 11.5064C6.77202 11.3028 6.59801 11.1619 6.40625 11.0838L6.63352 10.0859C6.96496 10.2043 7.23248 10.3771 7.43608 10.6044C7.64205 10.834 7.79119 11.098 7.88352 11.3963C7.97822 11.6946 8.02557 12.0083 8.02557 12.3374C8.02557 12.5552 7.99953 12.786 7.94744 13.0298C7.89773 13.276 7.8054 13.5057 7.67045 13.7188C7.53551 13.9342 7.34257 14.1106 7.09162 14.2479C6.84304 14.3852 6.51989 14.4538 6.12216 14.4538H2.5V13.4169H3.24574V13.3743C3.10843 13.3056 2.97348 13.2027 2.84091 13.0653C2.70833 12.928 2.59825 12.7517 2.51065 12.5362C2.42306 12.3208 2.37926 12.0627 2.37926 11.7621ZM3.23153 11.9929C3.23153 12.2865 3.28954 12.5374 3.40554 12.7457C3.52154 12.9564 3.67306 13.1162 3.86009 13.2251C4.04948 13.3364 4.25189 13.392 4.46733 13.392H5.17045C5.13258 13.3542 5.09706 13.2808 5.06392 13.1719C5.03314 13.0653 5.00592 12.9434 4.98224 12.8061C4.96094 12.6688 4.94081 12.535 4.92188 12.4048C4.9053 12.2746 4.8911 12.1657 4.87926 12.0781C4.85322 11.8722 4.80942 11.6839 4.74787 11.5135C4.68632 11.3454 4.59754 11.2105 4.48153 11.1087C4.3679 11.0092 4.21638 10.9595 4.02699 10.9595C3.7642 10.9595 3.56534 11.0566 3.4304 11.2507C3.29782 11.4448 3.23153 11.6922 3.23153 11.9929ZM7.95455 18.4142H7.10227L7.10227 15.4348H7.95455L7.95455 18.4142ZM9.26136 16.2338V17.2956H4.10156C3.8956 17.2956 3.74053 17.3264 3.63636 17.388C3.53456 17.4495 3.46473 17.5288 3.42685 17.6259C3.39134 17.7253 3.37358 17.833 3.37358 17.949C3.37358 18.0343 3.3795 18.1088 3.39134 18.1728C3.40317 18.2367 3.41264 18.2864 3.41974 18.3219L2.54261 18.5137C2.51894 18.4521 2.49527 18.3645 2.47159 18.2509C2.44555 18.1373 2.43134 17.9952 2.42898 17.8248C2.42424 17.5454 2.47396 17.285 2.57812 17.0435C2.68229 16.802 2.84328 16.6067 3.06108 16.4576C3.27888 16.3084 3.55232 16.2338 3.88139 16.2338H9.26136ZM5.73864 20.7678H2.5V19.706H9.77273V20.7536H7.06676V20.821C7.36032 20.9489 7.59351 21.1442 7.76634 21.407C7.93916 21.6697 8.02557 22.013 8.02557 22.4368C8.02557 22.8108 7.94863 23.1375 7.79474 23.4169C7.64086 23.6986 7.41122 23.9164 7.10582 24.0703C6.80279 24.2266 6.42401 24.3047 5.96946 24.3047H2.5V23.2429H5.84162C6.24171 23.2429 6.55185 23.1399 6.77202 22.9339C6.99456 22.728 7.10582 22.4415 7.10582 22.0746C7.10582 21.8236 7.05256 21.5987 6.94602 21.3999C6.83949 21.2034 6.68324 21.0483 6.47727 20.9347C6.27367 20.8234 6.02746 20.7678 5.73864 20.7678ZM2.5 25.7216H7.95455V26.7408H7.06676V26.8082C7.36742 26.9219 7.6018 27.1077 7.76989 27.3658C7.94034 27.6238 8.02557 27.9328 8.02557 28.2926C8.02557 28.6572 7.94034 28.9626 7.76989 29.2088C7.59943 29.4574 7.36506 29.6409 7.06676 29.7592V29.8161C7.35795 29.9463 7.58996 30.1534 7.76278 30.4375C7.93797 30.7216 8.02557 31.0601 8.02557 31.4531C8.02557 31.9479 7.8705 32.3516 7.56037 32.6641C7.25024 32.9789 6.78267 33.1364 6.15767 33.1364H2.5L2.5 32.0746H6.05824C6.42756 32.0746 6.69508 31.974 6.8608 31.7727C7.02652 31.5715 7.10938 31.3312 7.10938 31.0518C7.10938 30.7062 7.00284 30.4375 6.78977 30.2457C6.57907 30.054 6.308 29.9581 5.97656 29.9581H2.5V28.8999H6.12571C6.42164 28.8999 6.65956 28.8075 6.83949 28.6229C7.01941 28.4382 7.10938 28.1979 7.10938 27.902C7.10938 27.7008 7.05611 27.5149 6.94957 27.3445C6.84541 27.1764 6.69981 27.0402 6.51278 26.9361C6.32576 26.8343 6.10914 26.7834 5.86293 26.7834H2.5V25.7216ZM2.38991 36.9103C2.38991 36.3729 2.50473 35.9101 2.73438 35.5218C2.96638 35.1359 3.2919 34.8377 3.71094 34.627C4.13234 34.4186 4.62595 34.3145 5.19176 34.3145C5.75047 34.3145 6.2429 34.4186 6.66903 34.627C7.09517 34.8377 7.42779 35.1312 7.6669 35.5076C7.90601 35.8864 8.02557 36.3291 8.02557 36.8358C8.02557 37.1435 7.97467 37.4418 7.87287 37.7306C7.77107 38.0195 7.61127 38.2787 7.39347 38.5083C7.17566 38.738 6.89276 38.9191 6.54474 39.0517C6.1991 39.1842 5.77888 39.2505 5.28409 39.2505H4.90767V34.9146H5.70313V38.21C5.98248 38.21 6.22988 38.1532 6.44531 38.0396C6.66312 37.926 6.83475 37.7662 6.96023 37.5602C7.0857 37.3566 7.14844 37.1175 7.14844 36.8429C7.14844 36.5446 7.07505 36.2842 6.92827 36.0616C6.78385 35.8414 6.59446 35.671 6.36009 35.5502C6.12808 35.4319 5.87595 35.3727 5.60369 35.3727H4.98224C4.61766 35.3727 4.30753 35.4366 4.05185 35.5645C3.79616 35.6947 3.60085 35.8758 3.46591 36.1078C3.33333 36.3398 3.26705 36.6109 3.26705 36.921C3.26705 37.1222 3.29545 37.3057 3.35227 37.4714C3.41146 37.6371 3.49905 37.7804 3.61506 37.9011C3.73106 38.0218 3.87429 38.1142 4.04474 38.1781L3.86364 39.1831C3.56771 39.1026 3.30848 38.9582 3.08594 38.7498C2.86577 38.5439 2.69413 38.2846 2.57102 37.9721C2.45028 37.662 2.38991 37.3081 2.38991 36.9103ZM6.62287 44.516L6.45241 43.5536C6.57552 43.5134 6.69271 43.4495 6.80398 43.3619C6.91525 43.2766 7.00639 43.1606 7.07741 43.0138C7.14844 42.8671 7.18395 42.6836 7.18395 42.4634C7.18395 42.1628 7.11648 41.9118 6.98153 41.7106C6.84896 41.5094 6.67732 41.4087 6.46662 41.4087C6.28433 41.4087 6.13755 41.4762 6.02628 41.6112C5.91501 41.7461 5.82386 41.9639 5.75284 42.2646L5.55398 43.131C5.43797 43.6329 5.25923 44.007 5.01776 44.2532C4.77628 44.4994 4.46259 44.6225 4.0767 44.6225C3.75 44.6225 3.45881 44.5278 3.20313 44.3384C2.94981 44.1514 2.75095 43.8898 2.60653 43.5536C2.46212 43.2198 2.38991 42.8327 2.38991 42.3924C2.38991 41.7816 2.52012 41.2833 2.78054 40.8974C3.04332 40.5115 3.41619 40.2747 3.89915 40.1871L4.0554 41.2134C3.78788 41.2773 3.58546 41.4087 3.44815 41.6076C3.31321 41.8065 3.24574 42.0657 3.24574 42.3853C3.24574 42.7333 3.31795 43.0115 3.46236 43.2198C3.60914 43.4281 3.78788 43.5323 3.99858 43.5323C4.16903 43.5323 4.31226 43.4684 4.42827 43.3406C4.54427 43.2151 4.63187 43.0221 4.69105 42.7617L4.89347 41.8384C5.00947 41.3294 5.19413 40.953 5.44744 40.7092C5.70076 40.4677 6.02154 40.3469 6.4098 40.3469C6.73177 40.3469 7.01349 40.4369 7.25497 40.6168C7.49645 40.7968 7.68466 41.0453 7.8196 41.3626C7.95691 41.6798 8.02557 42.0432 8.02557 42.4528C8.02557 43.0423 7.89773 43.5063 7.64205 43.8448C7.38873 44.1834 7.04901 44.4071 6.62287 44.516ZM5.73864 46.8517H2.5V45.79H9.77273V46.8375H7.06676V46.905C7.36032 47.0328 7.59351 47.2282 7.76634 47.4909C7.93916 47.7537 8.02557 48.097 8.02557 48.5208C8.02557 48.8948 7.94863 49.2215 7.79474 49.5009C7.64086 49.7826 7.41122 50.0004 7.10582 50.1543C6.80279 50.3105 6.42401 50.3887 5.96946 50.3887H2.5V49.3269H5.84162C6.24171 49.3269 6.55185 49.2239 6.77202 49.0179C6.99456 48.812 7.10582 48.5255 7.10582 48.1586C7.10582 47.9076 7.05256 47.6827 6.94602 47.4838C6.83949 47.2873 6.68324 47.1323 6.47727 47.0186C6.27367 46.9074 6.02746 46.8517 5.73864 46.8517ZM7.95455 51.8056V52.8674H2.14489C1.7803 52.8674 1.47254 52.8011 1.22159 52.6685C0.970644 52.5383 0.780066 52.3442 0.649858 52.0861C0.51965 51.8304 0.454545 51.5144 0.454545 51.138C0.454545 51.1001 0.454545 51.0646 0.454545 51.0314C0.454545 50.9959 0.455729 50.9592 0.458097 50.9213H1.37074C1.37074 50.9545 1.37074 50.9841 1.37074 51.0101C1.37074 51.0338 1.37074 51.061 1.37074 51.0918C1.37074 51.3427 1.43821 51.5239 1.57315 51.6351C1.70573 51.7488 1.89867 51.8056 2.15199 51.8056H7.95455ZM8.79616 52.3311C8.79616 52.1465 8.85772 51.9879 8.98082 51.8553C9.1063 51.7251 9.25545 51.66 9.42827 51.66C9.60346 51.66 9.7526 51.7251 9.87571 51.8553C10.0012 51.9879 10.0639 52.1465 10.0639 52.3311C10.0639 52.5158 10.0012 52.6732 9.87571 52.8034C9.7526 52.936 9.60346 53.0023 9.42827 53.0023C9.25545 53.0023 9.1063 52.936 8.98082 52.8034C8.85772 52.6732 8.79616 52.5158 8.79616 52.3311ZM4.35014 55.2724L5.64631 55.2653V55.4499L7.95455 57.6232V58.8945L5.3267 56.4158V56.2489L4.35014 55.2724ZM2.5 54.2958H9.77273V55.3576H2.5V54.2958ZM2.5 57.7404L5.09233 55.7873L5.83452 56.5188L2.5 59.0437V57.7404ZM4.76207 63.3175H7.95455V64.3828H2.5V63.3388H3.4446V63.282C3.15341 63.1565 2.91075 62.9553 2.71662 62.6783C2.52486 62.4036 2.42898 62.0616 2.42898 61.652C2.42898 61.3016 2.50592 60.9915 2.6598 60.7216C2.81605 60.4541 3.04688 60.2434 3.35227 60.0895C3.65767 59.938 4.03527 59.8622 4.48509 59.8622H7.95455V60.924H4.61293C4.24124 60.924 3.94531 61.027 3.72514 61.233C3.50497 61.4389 3.39489 61.7064 3.39489 62.0355C3.39489 62.2344 3.4446 62.4321 3.54403 62.6286C3.64347 62.8274 3.7938 62.992 3.99503 63.1222C4.19626 63.2547 4.45194 63.3198 4.76207 63.3175ZM2.5 65.8095H7.95455V66.8287H7.06676V66.8961C7.36742 67.0098 7.6018 67.1956 7.76989 67.4537C7.94034 67.7117 8.02557 68.0207 8.02557 68.3805C8.02557 68.7451 7.94034 69.0505 7.76989 69.2967C7.59943 69.5453 7.36506 69.7288 7.06676 69.8471V69.9039C7.35795 70.0342 7.58996 70.2413 7.76278 70.5254C7.93797 70.8095 8.02557 71.148 8.02557 71.541C8.02557 72.0358 7.8705 72.4395 7.56037 72.752C7.25024 73.0668 6.78267 73.2243 6.15767 73.2243H2.5V72.1625H6.05824C6.42756 72.1625 6.69508 72.0618 6.8608 71.8606C7.02652 71.6594 7.10938 71.4191 7.10938 71.1397C7.10938 70.7941 7.00284 70.5254 6.78977 70.3336C6.57907 70.1419 6.308 70.046 5.97656 70.046H2.5V68.9877H6.12571C6.42164 68.9877 6.65956 68.8954 6.83949 68.7108C7.01941 68.5261 7.10938 68.2858 7.10938 67.9899C7.10938 67.7886 7.05611 67.6028 6.94957 67.4324C6.84541 67.2643 6.69981 67.1281 6.51278 67.024C6.32576 66.9222 6.10914 66.8713 5.86293 66.8713H2.5V65.8095ZM2.5 74.7326H9.77273V75.7944H7.07031V75.8583C7.18395 75.9199 7.31534 76.0086 7.46449 76.1246C7.61364 76.2406 7.74384 76.4016 7.85511 76.6076C7.96875 76.8136 8.02557 77.0858 8.02557 77.4244C8.02557 77.8647 7.9143 78.2577 7.69176 78.6033C7.46922 78.949 7.14844 79.2201 6.7294 79.4165C6.31037 79.6154 5.80611 79.7148 5.21662 79.7148C4.62713 79.7148 4.12169 79.6166 3.70028 79.4201C3.28125 79.2236 2.9581 78.9537 2.73082 78.6104C2.50592 78.2672 2.39347 77.8754 2.39347 77.435C2.39347 77.1036 2.4491 76.8325 2.56037 76.6218C2.67164 76.4135 2.80185 76.2501 2.95099 76.1317C3.10014 76.0134 3.23272 75.9222 3.34872 75.8583V75.7695H2.5V74.7326ZM5.22727 75.7731C4.84375 75.7731 4.50758 75.8287 4.21875 75.94C3.92992 76.0513 3.70384 76.2122 3.54048 76.4229C3.3795 76.6336 3.29901 76.8917 3.29901 77.1971C3.29901 77.5143 3.38305 77.7795 3.55114 77.9925C3.72159 78.2056 3.95241 78.3666 4.24361 78.4755C4.5348 78.5868 4.86269 78.6424 5.22727 78.6424C5.58712 78.6424 5.91027 78.5879 6.19673 78.479C6.48319 78.3725 6.70928 78.2115 6.875 77.9961C7.04072 77.783 7.12358 77.5167 7.12358 77.1971C7.12358 76.8893 7.04427 76.6289 6.88565 76.4158C6.72704 76.2051 6.50568 76.0453 6.22159 75.9364C5.9375 75.8275 5.60606 75.7731 5.22727 75.7731ZM5.73864 81.9689H2.5V80.9071H9.77273V81.9547H7.06676V82.0222C7.36032 82.15 7.59351 82.3453 7.76634 82.6081C7.93916 82.8709 8.02557 83.2142 8.02557 83.638C8.02557 84.012 7.94863 84.3387 7.79474 84.6181C7.64086 84.8998 7.41122 85.1176 7.10582 85.2715C6.80279 85.4277 6.42401 85.5059 5.96946 85.5059H2.5V84.4441H5.84162C6.24171 84.4441 6.55185 84.3411 6.77202 84.1351C6.99456 83.9292 7.10582 83.6427 7.10582 83.2757C7.10582 83.0248 7.05256 82.7999 6.94602 82.601C6.83949 82.4045 6.68324 82.2495 6.47727 82.1358C6.27367 82.0246 6.02746 81.9689 5.73864 81.9689ZM2.37926 88.5101C2.37926 88.1645 2.44318 87.852 2.57102 87.5726C2.70123 87.2933 2.88944 87.0719 3.13565 86.9086C3.38187 86.7476 3.68371 86.6671 4.04119 86.6671C4.34896 86.6671 4.60227 86.7263 4.80114 86.8446C5 86.963 5.15743 87.1228 5.27344 87.324C5.38944 87.5253 5.47704 87.7502 5.53622 87.9988C5.59541 88.2473 5.64039 88.5007 5.67116 88.7587C5.70904 89.0854 5.73982 89.3506 5.76349 89.5542C5.78954 89.7578 5.83097 89.9057 5.88778 89.998C5.9446 90.0904 6.03693 90.1365 6.16477 90.1365H6.18963C6.49976 90.1365 6.74006 90.0489 6.91051 89.8738C7.08097 89.7009 7.16619 89.4429 7.16619 89.0996C7.16619 88.7421 7.08688 88.4604 6.92827 88.2544C6.77202 88.0508 6.59801 87.91 6.40625 87.8319L6.63352 86.834C6.96496 86.9524 7.23248 87.1252 7.43608 87.3525C7.64205 87.5821 7.79119 87.8461 7.88352 88.1444C7.97822 88.4426 8.02557 88.7563 8.02557 89.0854C8.02557 89.3032 7.99953 89.534 7.94744 89.7779C7.89773 90.0241 7.8054 90.2537 7.67045 90.4668C7.53551 90.6822 7.34257 90.8586 7.09162 90.9959C6.84304 91.1332 6.51989 91.2019 6.12216 91.2019H2.5V90.165H3.24574V90.1223C3.10843 90.0537 2.97348 89.9507 2.84091 89.8134C2.70833 89.6761 2.59825 89.4997 2.51065 89.2843C2.42306 89.0688 2.37926 88.8108 2.37926 88.5101ZM3.23153 88.7409C3.23153 89.0345 3.28954 89.2855 3.40554 89.4938C3.52154 89.7045 3.67306 89.8643 3.86009 89.9732C4.04948 90.0845 4.25189 90.1401 4.46733 90.1401H5.17045C5.13258 90.1022 5.09706 90.0288 5.06392 89.9199C5.03314 89.8134 5.00592 89.6915 4.98224 89.5542C4.96094 89.4168 4.94081 89.2831 4.92188 89.1529C4.9053 89.0227 4.8911 88.9138 4.87926 88.8262C4.85322 88.6202 4.80942 88.432 4.74787 88.2615C4.68632 88.0935 4.59754 87.9585 4.48153 87.8567C4.3679 87.7573 4.21638 87.7076 4.02699 87.7076C3.7642 87.7076 3.56534 87.8046 3.4304 87.9988C3.29782 88.1929 3.23153 88.4403 3.23153 88.7409ZM2.5 92.6161H7.95455V93.6424H7.08807V93.6992C7.38163 93.7987 7.61245 93.9738 7.78054 94.2248C7.95099 94.4781 8.03622 94.7646 8.03622 95.0842C8.03622 95.1504 8.03385 95.2286 8.02912 95.3185C8.02438 95.4109 8.01847 95.4831 8.01136 95.5352H6.99574C7.00758 95.4925 7.0206 95.4168 7.0348 95.3079C7.05137 95.199 7.05966 95.0901 7.05966 94.9812C7.05966 94.7302 7.00639 94.5065 6.89986 94.31C6.79569 94.1159 6.65009 93.962 6.46307 93.8484C6.27841 93.7347 6.06771 93.6779 5.83097 93.6779H2.5V92.6161ZM0.522017 100.833C0.522017 100.099 0.622633 99.4476 0.823864 98.8794C1.02273 98.3136 1.31629 97.8366 1.70455 97.4483C2.09044 97.0601 2.56392 96.7653 3.125 96.5641C3.68608 96.3629 4.32647 96.2623 5.04616 96.2623C5.74692 96.2623 6.37666 96.3641 6.93537 96.5676C7.49408 96.7712 7.96993 97.0672 8.36293 97.4554C8.75829 97.8461 9.06013 98.3207 9.26847 98.8794C9.4768 99.4382 9.58097 100.073 9.58097 100.783C9.58097 101.462 9.47443 102.061 9.26136 102.58C9.0483 103.098 8.75592 103.534 8.38423 103.887C8.01255 104.242 7.58641 104.509 7.10582 104.689C6.62524 104.869 6.11742 104.959 5.58239 104.959C5.20833 104.959 4.84257 104.935 4.48509 104.888C4.12997 104.841 3.808 104.753 3.51918 104.625C3.23272 104.5 3.00308 104.317 2.83026 104.078C2.6598 103.842 2.57102 103.534 2.56392 103.155C2.55682 102.954 2.58049 102.758 2.63494 102.569C2.68939 102.38 2.77699 102.219 2.89773 102.086C3.02083 101.954 3.17708 101.873 3.36648 101.845V101.802C3.2268 101.745 3.09659 101.651 2.97585 101.518C2.85748 101.385 2.76278 101.216 2.69176 101.01C2.62311 100.807 2.5947 100.57 2.60653 100.3C2.61837 100.002 2.68584 99.7329 2.80895 99.4938C2.93205 99.2547 3.10251 99.0499 3.32031 98.8794C3.53812 98.7114 3.79616 98.5823 4.09446 98.4924C4.39276 98.4024 4.7242 98.3574 5.08878 98.3574C5.43916 98.3574 5.75284 98.4083 6.02983 98.5101C6.30919 98.6119 6.54948 98.7504 6.75071 98.9256C6.95431 99.1032 7.11529 99.3068 7.23366 99.5364C7.35204 99.766 7.42661 100.009 7.45739 100.264C7.4858 100.513 7.47869 100.741 7.43608 100.95C7.39347 101.158 7.32836 101.331 7.24077 101.468C7.15317 101.608 7.05729 101.695 6.95313 101.731V101.777H7.35085V102.651H4.0554C3.86837 102.651 3.70975 102.699 3.57955 102.796C3.44934 102.896 3.38423 103.037 3.38423 103.219C3.38423 103.434 3.46354 103.602 3.62216 103.723C3.78078 103.846 4.02462 103.933 4.35369 103.982C4.68277 104.035 5.10417 104.061 5.6179 104.061C5.97775 104.061 6.31629 104.012 6.63352 103.915C6.95313 103.82 7.24195 103.679 7.5 103.492C7.76042 103.308 7.98414 103.08 8.17116 102.811C8.35819 102.541 8.5026 102.233 8.6044 101.887C8.7062 101.544 8.7571 101.164 8.7571 100.747C8.7571 100.182 8.66951 99.6784 8.49432 99.2381C8.3215 98.7978 8.07173 98.4261 7.74503 98.123C7.41832 97.8224 7.02652 97.5939 6.5696 97.4377C6.11506 97.2838 5.60488 97.2069 5.03906 97.2069C4.44957 97.2069 3.92637 97.2862 3.46946 97.4448C3.01491 97.6034 2.63139 97.8378 2.31889 98.1479C2.00639 98.458 1.76965 98.8416 1.60866 99.2985C1.44531 99.7554 1.36364 100.282 1.36364 100.879C1.36364 101.144 1.38731 101.404 1.43466 101.66C1.47964 101.916 1.53172 102.143 1.59091 102.342C1.64773 102.543 1.69389 102.693 1.7294 102.793L0.951705 103.041C0.883049 102.895 0.815578 102.699 0.74929 102.455C0.683002 102.214 0.628551 101.951 0.585938 101.667C0.543324 101.385 0.522017 101.107 0.522017 100.833ZM3.47656 100.506C3.47656 100.814 3.53812 101.061 3.66122 101.248C3.78433 101.437 3.9678 101.574 4.21165 101.656C4.45786 101.742 4.76563 101.784 5.13494 101.784C5.49479 101.782 5.78125 101.736 5.99432 101.646C6.20975 101.558 6.36364 101.421 6.45597 101.234C6.55066 101.049 6.59801 100.811 6.59801 100.52C6.59801 100.253 6.53291 100.024 6.4027 99.8347C6.27249 99.6477 6.09612 99.5044 5.87358 99.405C5.65104 99.3079 5.40365 99.2582 5.13139 99.2559C4.84493 99.2582 4.57505 99.2985 4.32173 99.3766C4.07079 99.4571 3.86719 99.5873 3.71094 99.7672C3.55469 99.9495 3.47656 100.196 3.47656 100.506ZM0.340909 108.419C0.340909 107.985 0.397727 107.613 0.511364 107.3C0.625 106.99 0.775331 106.737 0.962358 106.54C1.14938 106.344 1.35417 106.197 1.5767 106.1L1.95313 107.012C1.84896 107.076 1.73887 107.162 1.62287 107.268C1.5045 107.377 1.40388 107.524 1.32102 107.708C1.23816 107.895 1.19673 108.136 1.19673 108.429C1.19673 108.832 1.29498 109.164 1.49148 109.427C1.68561 109.69 1.99574 109.821 2.42188 109.821H3.49432V109.754C3.37831 109.69 3.24929 109.598 3.10724 109.477C2.9652 109.359 2.84209 109.195 2.73793 108.987C2.63376 108.779 2.58168 108.507 2.58168 108.174C2.58168 107.743 2.68229 107.355 2.88352 107.009C3.08712 106.666 3.3866 106.393 3.78196 106.192C4.17969 105.993 4.66856 105.894 5.24858 105.894C5.8286 105.894 6.32576 105.992 6.74006 106.189C7.15436 106.387 7.47159 106.66 7.69176 107.005C7.9143 107.351 8.02557 107.743 8.02557 108.181C8.02557 108.519 7.96875 108.793 7.85511 109.001C7.74384 109.209 7.61364 109.372 7.46449 109.488C7.31534 109.606 7.18395 109.697 7.07031 109.761V109.839H7.95455V110.88H2.37926C1.91051 110.88 1.5258 110.771 1.22514 110.553C0.924479 110.335 0.701941 110.04 0.557528 109.669C0.413115 109.299 0.340909 108.883 0.340909 108.419ZM3.46236 108.408C3.46236 108.713 3.53338 108.971 3.67543 109.182C3.81984 109.395 4.0258 109.556 4.29332 109.665C4.56321 109.776 4.88636 109.832 5.26278 109.832C5.62973 109.832 5.95289 109.778 6.23224 109.669C6.5116 109.56 6.7294 109.4 6.88565 109.189C7.04427 108.979 7.12358 108.718 7.12358 108.408C7.12358 108.088 7.04072 107.822 6.875 107.609C6.71165 107.396 6.48911 107.235 6.20739 107.126C5.92566 107.02 5.6108 106.966 5.26278 106.966C4.9053 106.966 4.59162 107.021 4.32173 107.13C4.05185 107.239 3.84115 107.4 3.68963 107.613C3.53812 107.828 3.46236 108.093 3.46236 108.408ZM2.5 112.304H7.95455V113.323H7.06676V113.39C7.36742 113.504 7.6018 113.69 7.76989 113.948C7.94034 114.206 8.02557 114.515 8.02557 114.875C8.02557 115.239 7.94034 115.545 7.76989 115.791C7.59943 116.039 7.36506 116.223 7.06676 116.341V116.398C7.35795 116.528 7.58996 116.735 7.76278 117.02C7.93797 117.304 8.02557 117.642 8.02557 118.035C8.02557 118.53 7.8705 118.934 7.56037 119.246C7.25024 119.561 6.78267 119.718 6.15767 119.718H2.5V118.657H6.05824C6.42756 118.657 6.69508 118.556 6.8608 118.355C7.02652 118.154 7.10938 117.913 7.10938 117.634C7.10938 117.288 7.00284 117.02 6.78977 116.828C6.57907 116.636 6.308 116.54 5.97656 116.54H2.5V115.482H6.12571C6.42164 115.482 6.65956 115.39 6.83949 115.205C7.01941 115.02 7.10938 114.78 7.10938 114.484C7.10938 114.283 7.05611 114.097 6.94957 113.926C6.84541 113.758 6.69981 113.622 6.51278 113.518C6.32576 113.416 6.10914 113.365 5.86293 113.365H2.5V112.304ZM2.37926 122.729C2.37926 122.383 2.44318 122.071 2.57102 121.791C2.70123 121.512 2.88944 121.291 3.13565 121.127C3.38187 120.966 3.68371 120.886 4.04119 120.886C4.34896 120.886 4.60227 120.945 4.80114 121.063C5 121.182 5.15743 121.342 5.27344 121.543C5.38944 121.744 5.47704 121.969 5.53622 122.218C5.59541 122.466 5.64039 122.719 5.67116 122.977C5.70904 123.304 5.73982 123.569 5.76349 123.773C5.78954 123.977 5.83097 124.124 5.88778 124.217C5.9446 124.309 6.03693 124.355 6.16477 124.355H6.18963C6.49976 124.355 6.74006 124.268 6.91051 124.093C7.08097 123.92 7.16619 123.662 7.16619 123.318C7.16619 122.961 7.08688 122.679 6.92827 122.473C6.77202 122.27 6.59801 122.129 6.40625 122.051L6.63352 121.053C6.96496 121.171 7.23248 121.344 7.43608 121.571C7.64205 121.801 7.79119 122.065 7.88352 122.363C7.97822 122.661 8.02557 122.975 8.02557 123.304C8.02557 123.522 7.99953 123.753 7.94744 123.997C7.89773 124.243 7.8054 124.472 7.67045 124.686C7.53551 124.901 7.34257 125.077 7.09162 125.215C6.84304 125.352 6.51989 125.421 6.12216 125.421H2.5V124.384H3.24574V124.341C3.10843 124.272 2.97348 124.169 2.84091 124.032C2.70833 123.895 2.59825 123.718 2.51065 123.503C2.42306 123.288 2.37926 123.03 2.37926 122.729ZM3.23153 122.96C3.23153 123.253 3.28954 123.504 3.40554 123.713C3.52154 123.923 3.67306 124.083 3.86009 124.192C4.04948 124.303 4.25189 124.359 4.46733 124.359H5.17045C5.13258 124.321 5.09706 124.248 5.06392 124.139C5.03314 124.032 5.00592 123.91 4.98224 123.773C4.96094 123.636 4.94081 123.502 4.92188 123.372C4.9053 123.241 4.8911 123.133 4.87926 123.045C4.85322 122.839 4.80942 122.651 4.74787 122.48C4.68632 122.312 4.59754 122.177 4.48153 122.075C4.3679 121.976 4.21638 121.926 4.02699 121.926C3.7642 121.926 3.56534 122.023 3.4304 122.218C3.29782 122.412 3.23153 122.659 3.23153 122.96ZM2.5 126.835H7.95455V127.897H2.5V126.835ZM8.79616 127.371C8.79616 127.186 8.85772 127.028 8.98082 126.895C9.1063 126.765 9.25545 126.7 9.42827 126.7C9.60346 126.7 9.7526 126.765 9.87571 126.895C10.0012 127.028 10.0639 127.186 10.0639 127.371C10.0639 127.556 10.0012 127.713 9.87571 127.843C9.7526 127.976 9.60346 128.042 9.42827 128.042C9.25545 128.042 9.1063 127.976 8.98082 127.843C8.85772 127.713 8.79616 127.556 8.79616 127.371ZM9.77273 130.387H2.5V129.325H9.77273V130.387ZM2.43253 132.515C2.43253 132.321 2.50118 132.154 2.63849 132.014C2.77817 131.875 2.94626 131.805 3.14276 131.805C3.33688 131.805 3.5026 131.875 3.63991 132.014C3.77959 132.154 3.84943 132.321 3.84943 132.515C3.84943 132.709 3.77959 132.876 3.63991 133.016C3.5026 133.155 3.33688 133.225 3.14276 133.225C3.01255 133.225 2.89299 133.192 2.78409 133.126C2.67756 133.062 2.59233 132.977 2.52841 132.87C2.46449 132.763 2.43253 132.645 2.43253 132.515ZM2.38991 136.945C2.38991 136.417 2.50947 135.962 2.74858 135.581C2.99006 135.203 3.32268 134.911 3.74645 134.708C4.17022 134.504 4.65554 134.402 5.20241 134.402C5.75639 134.402 6.24527 134.507 6.66903 134.715C7.09517 134.923 7.42779 135.217 7.6669 135.596C7.90601 135.974 8.02557 136.421 8.02557 136.934C8.02557 137.349 7.94863 137.718 7.79474 138.042C7.64323 138.367 7.43016 138.628 7.15554 138.827C6.88092 139.028 6.56013 139.148 6.19318 139.186V138.152C6.44886 138.096 6.66903 137.965 6.85369 137.762C7.03835 137.56 7.13068 137.291 7.13068 136.952C7.13068 136.656 7.05256 136.397 6.89631 136.174C6.74242 135.954 6.52225 135.783 6.2358 135.659C5.9517 135.536 5.61553 135.475 5.22727 135.475C4.82955 135.475 4.48627 135.535 4.19744 135.656C3.90862 135.777 3.6849 135.947 3.52628 136.167C3.36766 136.39 3.28835 136.651 3.28835 136.952C3.28835 137.153 3.32505 137.336 3.39844 137.499C3.4742 137.665 3.58191 137.803 3.72159 137.914C3.86127 138.028 4.02936 138.107 4.22585 138.152V139.186C3.87311 139.148 3.55824 139.033 3.28125 138.841C3.00426 138.65 2.78646 138.393 2.62784 138.071C2.46922 137.751 2.38991 137.376 2.38991 136.945ZM2.38991 142.619C2.38991 142.107 2.5071 141.661 2.74148 141.28C2.97585 140.899 3.30374 140.603 3.72514 140.392C4.14654 140.182 4.63897 140.076 5.20241 140.076C5.76823 140.076 6.26302 140.182 6.68679 140.392C7.11056 140.603 7.43963 140.899 7.67401 141.28C7.90838 141.661 8.02557 142.107 8.02557 142.619C8.02557 143.13 7.90838 143.576 7.67401 143.958C7.43963 144.339 7.11056 144.635 6.68679 144.845C6.26302 145.056 5.76823 145.161 5.20241 145.161C4.63897 145.161 4.14654 145.056 3.72514 144.845C3.30374 144.635 2.97585 144.339 2.74148 143.958C2.5071 143.576 2.38991 143.13 2.38991 142.619ZM3.28125 142.622C3.28125 142.954 3.36884 143.228 3.54403 143.446C3.71922 143.664 3.95241 143.825 4.24361 143.929C4.5348 144.036 4.85559 144.089 5.20597 144.089C5.55398 144.089 5.87358 144.036 6.16477 143.929C6.45833 143.825 6.69389 143.664 6.87145 143.446C7.04901 143.228 7.13778 142.954 7.13778 142.622C7.13778 142.289 7.04901 142.012 6.87145 141.791C6.69389 141.574 6.45833 141.411 6.16477 141.305C5.87358 141.201 5.55398 141.149 5.20597 141.149C4.85559 141.149 4.5348 141.201 4.24361 141.305C3.95241 141.411 3.71922 141.574 3.54403 141.791C3.36884 142.012 3.28125 142.289 3.28125 142.622ZM2.5 146.347H7.95455V147.366H7.06676V147.433C7.36742 147.547 7.6018 147.733 7.76989 147.991C7.94034 148.249 8.02557 148.558 8.02557 148.918C8.02557 149.282 7.94034 149.588 7.76989 149.834C7.59943 150.082 7.36506 150.266 7.06676 150.384V150.441C7.35795 150.571 7.58996 150.778 7.76278 151.062C7.93797 151.347 8.02557 151.685 8.02557 152.078C8.02557 152.573 7.8705 152.977 7.56037 153.289C7.25024 153.604 6.78267 153.761 6.15767 153.761H2.5V152.7H6.05824C6.42756 152.7 6.69508 152.599 6.8608 152.398C7.02652 152.196 7.10938 151.956 7.10938 151.677C7.10938 151.331 7.00284 151.062 6.78977 150.871C6.57907 150.679 6.308 150.583 5.97656 150.583H2.5V149.525H6.12571C6.42164 149.525 6.65956 149.433 6.83949 149.248C7.01941 149.063 7.10938 148.823 7.10938 148.527C7.10938 148.326 7.05611 148.14 6.94957 147.969C6.84541 147.801 6.69981 147.665 6.51278 147.561C6.32576 147.459 6.10914 147.408 5.86293 147.408H2.5V146.347Z" fill="white"/>
<path d="M5.45088 158.497V180.497M5.45088 180.497L8.20088 177.857M5.45088 180.497L3.20088 178.444" stroke="white"/>
</svg>
