<svg width="1280" height="832" viewBox="0 0 1280 832" fill="none" xmlns="http://www.w3.org/2000/svg">
<rect width="1280" height="832" fill="white"/>
<path d="M74.2337 504V328.727H111.291V473.447H186.432V504H74.2337ZM269.682 506.567C256.389 506.567 244.892 503.743 235.193 498.095C225.55 492.389 218.105 484.459 212.856 474.303C207.607 464.09 204.982 452.251 204.982 438.786C204.982 425.207 207.607 413.34 212.856 403.184C218.105 392.971 225.55 385.04 235.193 379.392C244.892 373.687 256.389 370.834 269.682 370.834C282.976 370.834 294.444 373.687 304.087 379.392C313.786 385.04 321.26 392.971 326.509 403.184C331.758 413.34 334.383 425.207 334.383 438.786C334.383 452.251 331.758 464.09 326.509 474.303C321.26 484.459 313.786 492.389 304.087 498.095C294.444 503.743 282.976 506.567 269.682 506.567ZM269.854 478.325C275.901 478.325 280.951 476.614 285.002 473.19C289.053 469.71 292.105 464.974 294.159 458.984C296.27 452.993 297.326 446.175 297.326 438.529C297.326 430.884 296.27 424.066 294.159 418.075C292.105 412.085 289.053 407.349 285.002 403.869C280.951 400.388 275.901 398.648 269.854 398.648C263.749 398.648 258.614 400.388 254.449 403.869C250.341 407.349 247.231 412.085 245.12 418.075C243.066 424.066 242.039 430.884 242.039 438.529C242.039 446.175 243.066 452.993 245.12 458.984C247.231 464.974 250.341 469.71 254.449 473.19C258.614 476.614 263.749 478.325 269.854 478.325ZM395.574 506.482C387.187 506.482 379.713 505.027 373.152 502.117C366.59 499.15 361.398 494.786 357.576 489.023C353.81 483.203 351.927 475.958 351.927 467.285C351.927 459.982 353.268 453.849 355.949 448.885C358.631 443.921 362.283 439.927 366.904 436.903C371.525 433.879 376.775 431.597 382.651 430.057C388.585 428.516 394.804 427.432 401.308 426.805C408.954 426.006 415.115 425.264 419.794 424.58C424.472 423.838 427.867 422.754 429.978 421.327C432.089 419.901 433.145 417.79 433.145 414.994V414.481C433.145 409.061 431.433 404.867 428.01 401.9C424.644 398.933 419.851 397.45 413.632 397.45C407.071 397.45 401.85 398.905 397.97 401.815C394.091 404.667 391.523 408.262 390.268 412.598L356.549 409.859C358.26 401.872 361.626 394.968 366.647 389.148C371.668 383.272 378.144 378.764 386.074 375.626C394.062 372.431 403.305 370.834 413.803 370.834C421.106 370.834 428.095 371.69 434.771 373.401C441.503 375.113 447.466 377.766 452.658 381.36C457.907 384.955 462.043 389.576 465.067 395.225C468.091 400.816 469.603 407.52 469.603 415.337V504H435.028V485.771H434.001C431.89 489.879 429.065 493.502 425.528 496.64C421.991 499.721 417.74 502.146 412.776 503.914C407.812 505.626 402.078 506.482 395.574 506.482ZM406.015 481.321C411.378 481.321 416.114 480.265 420.222 478.154C424.33 475.986 427.553 473.076 429.893 469.425C432.232 465.773 433.402 461.637 433.402 457.015V443.065C432.26 443.807 430.691 444.492 428.695 445.119C426.755 445.69 424.558 446.232 422.105 446.745C419.651 447.202 417.198 447.63 414.745 448.029C412.291 448.371 410.066 448.685 408.069 448.971C403.79 449.598 400.053 450.597 396.858 451.966C393.663 453.335 391.181 455.19 389.412 457.529C387.643 459.811 386.759 462.664 386.759 466.087C386.759 471.051 388.556 474.845 392.151 477.469C395.802 480.037 400.424 481.321 406.015 481.321ZM546.328 506.14C536.343 506.14 527.3 503.572 519.198 498.437C511.153 493.245 504.763 485.628 500.027 475.587C495.349 465.488 493.01 453.107 493.01 438.444C493.01 423.381 495.435 410.858 500.284 400.873C505.134 390.832 511.581 383.329 519.626 378.365C527.728 373.344 536.6 370.834 546.242 370.834C553.602 370.834 559.735 372.089 564.642 374.599C569.606 377.053 573.6 380.134 576.624 383.842C579.705 387.494 582.044 391.088 583.641 394.626H584.754V328.727H621.127V504H585.182V482.947H583.641C581.93 486.598 579.505 490.221 576.367 493.816C573.286 497.353 569.264 500.291 564.3 502.631C559.393 504.97 553.402 506.14 546.328 506.14ZM557.881 477.127C563.758 477.127 568.722 475.53 572.772 472.335C576.88 469.082 580.018 464.547 582.187 458.727C584.412 452.907 585.524 446.089 585.524 438.273C585.524 430.456 584.44 423.667 582.272 417.904C580.104 412.142 576.966 407.691 572.858 404.553C568.75 401.415 563.758 399.846 557.881 399.846C551.89 399.846 546.841 401.472 542.733 404.724C538.625 407.977 535.516 412.484 533.405 418.246C531.294 424.009 530.238 430.684 530.238 438.273C530.238 445.918 531.294 452.679 533.405 458.556C535.573 464.375 538.682 468.94 542.733 472.249C546.841 475.501 551.89 477.127 557.881 477.127ZM651.102 504V372.545H687.56V504H651.102ZM669.416 355.6C663.996 355.6 659.346 353.803 655.466 350.208C651.644 346.557 649.732 342.192 649.732 337.114C649.732 332.094 651.644 327.786 655.466 324.191C659.346 320.54 663.996 318.714 669.416 318.714C674.837 318.714 679.458 320.54 683.281 324.191C687.16 327.786 689.1 332.094 689.1 337.114C689.1 342.192 687.16 346.557 683.281 350.208C679.458 353.803 674.837 355.6 669.416 355.6ZM753.223 428.003V504H716.765V372.545H751.511V395.738H753.052C755.962 388.093 760.84 382.045 767.686 377.595C774.533 373.087 782.834 370.834 792.591 370.834C801.72 370.834 809.679 372.831 816.468 376.825C823.258 380.818 828.535 386.524 832.301 393.941C836.067 401.301 837.949 410.088 837.949 420.3V504H801.491V426.805C801.548 418.76 799.494 412.484 795.329 407.977C791.164 403.412 785.43 401.13 778.127 401.13C773.221 401.13 768.885 402.185 765.119 404.297C761.41 406.408 758.501 409.489 756.389 413.539C754.335 417.533 753.28 422.354 753.223 428.003ZM925.907 556.034C914.096 556.034 903.969 554.408 895.525 551.156C887.138 547.961 880.463 543.596 875.499 538.062C870.535 532.527 867.311 526.308 865.828 519.405L899.547 514.869C900.574 517.493 902.2 519.947 904.426 522.229C906.651 524.511 909.589 526.337 913.241 527.706C916.949 529.133 921.457 529.846 926.763 529.846C934.693 529.846 941.226 527.906 946.361 524.026C951.553 520.204 954.149 513.785 954.149 504.77V480.722H952.608C951.011 484.373 948.615 487.825 945.42 491.077C942.224 494.329 938.117 496.982 933.096 499.036C928.075 501.09 922.084 502.117 915.123 502.117C905.253 502.117 896.267 499.835 888.165 495.271C880.12 490.649 873.702 483.603 868.909 474.132C864.173 464.604 861.806 452.565 861.806 438.016C861.806 423.125 864.23 410.687 869.08 400.702C873.93 390.717 880.377 383.243 888.422 378.279C896.523 373.316 905.396 370.834 915.038 370.834C922.398 370.834 928.56 372.089 933.524 374.599C938.487 377.053 942.481 380.134 945.505 383.842C948.586 387.494 950.954 391.088 952.608 394.626H953.978V372.545H990.179V505.284C990.179 516.467 987.441 525.824 981.963 533.355C976.486 540.886 968.898 546.534 959.198 550.3C949.556 554.123 938.459 556.034 925.907 556.034ZM926.677 474.731C932.554 474.731 937.517 473.276 941.568 470.366C945.676 467.399 948.814 463.177 950.982 457.7C953.208 452.166 954.32 445.547 954.32 437.845C954.32 430.142 953.236 423.467 951.068 417.819C948.9 412.113 945.762 407.691 941.654 404.553C937.546 401.415 932.554 399.846 926.677 399.846C920.686 399.846 915.637 401.472 911.529 404.724C907.421 407.92 904.311 412.37 902.2 418.075C900.089 423.781 899.034 430.371 899.034 437.845C899.034 445.433 900.089 451.994 902.2 457.529C904.369 463.006 907.478 467.257 911.529 470.281C915.637 473.247 920.686 474.731 926.677 474.731ZM1040.5 506.225C1034.85 506.225 1030 504.228 1025.95 500.234C1021.96 496.183 1019.96 491.334 1019.96 485.685C1019.96 480.094 1021.96 475.301 1025.95 471.308C1030 467.314 1034.85 465.317 1040.5 465.317C1045.98 465.317 1050.77 467.314 1054.88 471.308C1058.99 475.301 1061.04 480.094 1061.04 485.685C1061.04 489.451 1060.07 492.903 1058.13 496.041C1056.25 499.122 1053.77 501.604 1050.69 503.487C1047.6 505.312 1044.21 506.225 1040.5 506.225ZM1112.28 506.225C1106.64 506.225 1101.79 504.228 1097.73 500.234C1093.74 496.183 1091.74 491.334 1091.74 485.685C1091.74 480.094 1093.74 475.301 1097.73 471.308C1101.79 467.314 1106.64 465.317 1112.28 465.317C1117.76 465.317 1122.55 467.314 1126.66 471.308C1130.77 475.301 1132.82 480.094 1132.82 485.685C1132.82 489.451 1131.85 492.903 1129.91 496.041C1128.03 499.122 1125.55 501.604 1122.47 503.487C1119.39 505.312 1115.99 506.225 1112.28 506.225ZM1184.07 506.225C1178.42 506.225 1173.57 504.228 1169.52 500.234C1165.52 496.183 1163.53 491.334 1163.53 485.685C1163.53 480.094 1165.52 475.301 1169.52 471.308C1173.57 467.314 1178.42 465.317 1184.07 465.317C1189.54 465.317 1194.34 467.314 1198.44 471.308C1202.55 475.301 1204.61 480.094 1204.61 485.685C1204.61 489.451 1203.64 492.903 1201.7 496.041C1199.81 499.122 1197.33 501.604 1194.25 503.487C1191.17 505.312 1187.77 506.225 1184.07 506.225Z" fill="black"/>
</svg>
